<?xml version="1.0" standalone="no"?>
<!DOCTYPE svg PUBLIC "-//W3C//DTD SVG 20010904//EN"
 "http://www.w3.org/TR/2001/REC-SVG-20010904/DTD/svg10.dtd">
<svg version="1.0" xmlns="http://www.w3.org/2000/svg"
 width="2000.000000pt" height="813.000000pt" viewBox="0 0 2000.000000 813.000000"
 preserveAspectRatio="xMidYMid meet">

<g transform="translate(0.000000,813.000000) scale(0.100000,-0.100000)"
fill="#000000" stroke="none">
<path d="M0 7293 c0 -460 2 -834 4 -832 2 2 6 56 10 119 17 299 80 579 172
762 120 240 302 432 534 566 235 134 427 184 815 211 65 5 -226 9 -712 10
l-823 1 0 -837z"/>
<path d="M4321 8126 c2 -2 25 -6 51 -9 67 -8 81 -19 103 -79 19 -49 20 -79 20
-408 0 -384 -5 -428 -52 -472 l-25 -23 -1396 -5 c-1236 -5 -1405 -8 -1462 -22
-190 -47 -302 -132 -370 -283 -58 -126 -60 -159 -60 -826 l0 -608 1458 -3
c1386 -3 1459 -4 1490 -21 62 -34 63 -46 60 -460 -3 -346 -4 -374 -22 -404
-38 -62 61 -58 -1528 -61 l-1458 -2 0 -1103 c0 -697 -4 -1134 -10 -1187 -37
-298 -180 -481 -440 -562 -70 -21 -91 -23 -320 -23 -211 0 -249 2 -276 17 -44
24 -56 43 -70 106 -10 47 -12 -104 -13 -815 l-1 -873 10000 0 10000 0 0 4065
0 4065 -7842 0 c-4313 0 -7839 -2 -7837 -4z"/>
</g>
</svg>
